<mxfile host="app.diagrams.net" agent="Mozilla/5.0 (Windows NT 10.0; Win64; x64) AppleWebKit/537.36 (KHTML, like Gecko) Chrome/133.0.0.0 Safari/537.36" version="26.1.0">
  <diagram name="Page-1" id="UymRD6uqGmvyVsF59VTj">
    <mxGraphModel dx="1927" dy="1652" grid="1" gridSize="10" guides="1" tooltips="1" connect="1" arrows="1" fold="1" page="1" pageScale="1" pageWidth="850" pageHeight="1100" math="0" shadow="0">
      <root>
        <mxCell id="0" />
        <mxCell id="1" parent="0" />
        <mxCell id="Cv067esEAor_iLYO7rBp-243" value="CUSTOMERS" style="shape=table;startSize=25;container=1;collapsible=0;childLayout=tableLayout;fixedRows=1;rowLines=1;fontStyle=1;align=center;resizeLast=1;movable=1;resizable=1;rotatable=1;deletable=1;editable=1;locked=0;connectable=1;" parent="1" vertex="1">
          <mxGeometry x="100" y="-70" width="172" height="223" as="geometry" />
        </mxCell>
        <mxCell id="Cv067esEAor_iLYO7rBp-244" style="shape=tableRow;horizontal=0;startSize=0;swimlaneHead=0;swimlaneBody=0;fillColor=none;collapsible=0;dropTarget=0;points=[[0,0.5],[1,0.5]];portConstraint=eastwest;top=0;left=0;right=0;bottom=0;" parent="Cv067esEAor_iLYO7rBp-243" vertex="1">
          <mxGeometry y="25" width="172" height="22" as="geometry" />
        </mxCell>
        <mxCell id="Cv067esEAor_iLYO7rBp-245" value="ID" style="shape=partialRectangle;connectable=0;fillColor=none;top=0;left=0;bottom=0;right=0;align=left;spacingLeft=2;overflow=hidden;fontSize=11;" parent="Cv067esEAor_iLYO7rBp-244" vertex="1">
          <mxGeometry width="96" height="22" as="geometry">
            <mxRectangle width="96" height="22" as="alternateBounds" />
          </mxGeometry>
        </mxCell>
        <mxCell id="Cv067esEAor_iLYO7rBp-246" value="int" style="shape=partialRectangle;connectable=0;fillColor=none;top=0;left=0;bottom=0;right=0;align=left;spacingLeft=2;overflow=hidden;fontSize=11;" parent="Cv067esEAor_iLYO7rBp-244" vertex="1">
          <mxGeometry x="96" width="54" height="22" as="geometry">
            <mxRectangle width="54" height="22" as="alternateBounds" />
          </mxGeometry>
        </mxCell>
        <mxCell id="Cv067esEAor_iLYO7rBp-247" value="PK" style="shape=partialRectangle;connectable=0;fillColor=none;top=0;left=0;bottom=0;right=0;align=left;spacingLeft=2;overflow=hidden;fontSize=11;" parent="Cv067esEAor_iLYO7rBp-244" vertex="1">
          <mxGeometry x="150" width="22" height="22" as="geometry">
            <mxRectangle width="22" height="22" as="alternateBounds" />
          </mxGeometry>
        </mxCell>
        <mxCell id="Cv067esEAor_iLYO7rBp-248" style="shape=tableRow;horizontal=0;startSize=0;swimlaneHead=0;swimlaneBody=0;fillColor=none;collapsible=0;dropTarget=0;points=[[0,0.5],[1,0.5]];portConstraint=eastwest;top=0;left=0;right=0;bottom=0;" parent="Cv067esEAor_iLYO7rBp-243" vertex="1">
          <mxGeometry y="47" width="172" height="22" as="geometry" />
        </mxCell>
        <mxCell id="Cv067esEAor_iLYO7rBp-249" value="NAME" style="shape=partialRectangle;connectable=0;fillColor=none;top=0;left=0;bottom=0;right=0;align=left;spacingLeft=2;overflow=hidden;fontSize=11;" parent="Cv067esEAor_iLYO7rBp-248" vertex="1">
          <mxGeometry width="96" height="22" as="geometry">
            <mxRectangle width="96" height="22" as="alternateBounds" />
          </mxGeometry>
        </mxCell>
        <mxCell id="Cv067esEAor_iLYO7rBp-250" value="varchar" style="shape=partialRectangle;connectable=0;fillColor=none;top=0;left=0;bottom=0;right=0;align=left;spacingLeft=2;overflow=hidden;fontSize=11;" parent="Cv067esEAor_iLYO7rBp-248" vertex="1">
          <mxGeometry x="96" width="54" height="22" as="geometry">
            <mxRectangle width="54" height="22" as="alternateBounds" />
          </mxGeometry>
        </mxCell>
        <mxCell id="Cv067esEAor_iLYO7rBp-251" value="" style="shape=partialRectangle;connectable=0;fillColor=none;top=0;left=0;bottom=0;right=0;align=left;spacingLeft=2;overflow=hidden;fontSize=11;" parent="Cv067esEAor_iLYO7rBp-248" vertex="1">
          <mxGeometry x="150" width="22" height="22" as="geometry">
            <mxRectangle width="22" height="22" as="alternateBounds" />
          </mxGeometry>
        </mxCell>
        <mxCell id="Cv067esEAor_iLYO7rBp-252" style="shape=tableRow;horizontal=0;startSize=0;swimlaneHead=0;swimlaneBody=0;fillColor=none;collapsible=0;dropTarget=0;points=[[0,0.5],[1,0.5]];portConstraint=eastwest;top=0;left=0;right=0;bottom=0;" parent="Cv067esEAor_iLYO7rBp-243" vertex="1">
          <mxGeometry y="69" width="172" height="22" as="geometry" />
        </mxCell>
        <mxCell id="Cv067esEAor_iLYO7rBp-253" value="EMAIL" style="shape=partialRectangle;connectable=0;fillColor=none;top=0;left=0;bottom=0;right=0;align=left;spacingLeft=2;overflow=hidden;fontSize=11;" parent="Cv067esEAor_iLYO7rBp-252" vertex="1">
          <mxGeometry width="96" height="22" as="geometry">
            <mxRectangle width="96" height="22" as="alternateBounds" />
          </mxGeometry>
        </mxCell>
        <mxCell id="Cv067esEAor_iLYO7rBp-254" value="varchar" style="shape=partialRectangle;connectable=0;fillColor=none;top=0;left=0;bottom=0;right=0;align=left;spacingLeft=2;overflow=hidden;fontSize=11;" parent="Cv067esEAor_iLYO7rBp-252" vertex="1">
          <mxGeometry x="96" width="54" height="22" as="geometry">
            <mxRectangle width="54" height="22" as="alternateBounds" />
          </mxGeometry>
        </mxCell>
        <mxCell id="Cv067esEAor_iLYO7rBp-255" value="" style="shape=partialRectangle;connectable=0;fillColor=none;top=0;left=0;bottom=0;right=0;align=left;spacingLeft=2;overflow=hidden;fontSize=11;" parent="Cv067esEAor_iLYO7rBp-252" vertex="1">
          <mxGeometry x="150" width="22" height="22" as="geometry">
            <mxRectangle width="22" height="22" as="alternateBounds" />
          </mxGeometry>
        </mxCell>
        <mxCell id="Cv067esEAor_iLYO7rBp-256" style="shape=tableRow;horizontal=0;startSize=0;swimlaneHead=0;swimlaneBody=0;fillColor=none;collapsible=0;dropTarget=0;points=[[0,0.5],[1,0.5]];portConstraint=eastwest;top=0;left=0;right=0;bottom=0;" parent="Cv067esEAor_iLYO7rBp-243" vertex="1">
          <mxGeometry y="91" width="172" height="22" as="geometry" />
        </mxCell>
        <mxCell id="Cv067esEAor_iLYO7rBp-257" value="PHONE_NUM" style="shape=partialRectangle;connectable=0;fillColor=none;top=0;left=0;bottom=0;right=0;align=left;spacingLeft=2;overflow=hidden;fontSize=11;" parent="Cv067esEAor_iLYO7rBp-256" vertex="1">
          <mxGeometry width="96" height="22" as="geometry">
            <mxRectangle width="96" height="22" as="alternateBounds" />
          </mxGeometry>
        </mxCell>
        <mxCell id="Cv067esEAor_iLYO7rBp-258" value="varchar" style="shape=partialRectangle;connectable=0;fillColor=none;top=0;left=0;bottom=0;right=0;align=left;spacingLeft=2;overflow=hidden;fontSize=11;" parent="Cv067esEAor_iLYO7rBp-256" vertex="1">
          <mxGeometry x="96" width="54" height="22" as="geometry">
            <mxRectangle width="54" height="22" as="alternateBounds" />
          </mxGeometry>
        </mxCell>
        <mxCell id="Cv067esEAor_iLYO7rBp-259" value="" style="shape=partialRectangle;connectable=0;fillColor=none;top=0;left=0;bottom=0;right=0;align=left;spacingLeft=2;overflow=hidden;fontSize=11;" parent="Cv067esEAor_iLYO7rBp-256" vertex="1">
          <mxGeometry x="150" width="22" height="22" as="geometry">
            <mxRectangle width="22" height="22" as="alternateBounds" />
          </mxGeometry>
        </mxCell>
        <mxCell id="Cv067esEAor_iLYO7rBp-260" style="shape=tableRow;horizontal=0;startSize=0;swimlaneHead=0;swimlaneBody=0;fillColor=none;collapsible=0;dropTarget=0;points=[[0,0.5],[1,0.5]];portConstraint=eastwest;top=0;left=0;right=0;bottom=0;" parent="Cv067esEAor_iLYO7rBp-243" vertex="1">
          <mxGeometry y="113" width="172" height="22" as="geometry" />
        </mxCell>
        <mxCell id="Cv067esEAor_iLYO7rBp-261" value="PASSWORD" style="shape=partialRectangle;connectable=0;fillColor=none;top=0;left=0;bottom=0;right=0;align=left;spacingLeft=2;overflow=hidden;fontSize=11;" parent="Cv067esEAor_iLYO7rBp-260" vertex="1">
          <mxGeometry width="96" height="22" as="geometry">
            <mxRectangle width="96" height="22" as="alternateBounds" />
          </mxGeometry>
        </mxCell>
        <mxCell id="Cv067esEAor_iLYO7rBp-262" value="varchar" style="shape=partialRectangle;connectable=0;fillColor=none;top=0;left=0;bottom=0;right=0;align=left;spacingLeft=2;overflow=hidden;fontSize=11;" parent="Cv067esEAor_iLYO7rBp-260" vertex="1">
          <mxGeometry x="96" width="54" height="22" as="geometry">
            <mxRectangle width="54" height="22" as="alternateBounds" />
          </mxGeometry>
        </mxCell>
        <mxCell id="Cv067esEAor_iLYO7rBp-263" value="" style="shape=partialRectangle;connectable=0;fillColor=none;top=0;left=0;bottom=0;right=0;align=left;spacingLeft=2;overflow=hidden;fontSize=11;" parent="Cv067esEAor_iLYO7rBp-260" vertex="1">
          <mxGeometry x="150" width="22" height="22" as="geometry">
            <mxRectangle width="22" height="22" as="alternateBounds" />
          </mxGeometry>
        </mxCell>
        <mxCell id="Cv067esEAor_iLYO7rBp-264" style="shape=tableRow;horizontal=0;startSize=0;swimlaneHead=0;swimlaneBody=0;fillColor=none;collapsible=0;dropTarget=0;points=[[0,0.5],[1,0.5]];portConstraint=eastwest;top=0;left=0;right=0;bottom=0;" parent="Cv067esEAor_iLYO7rBp-243" vertex="1">
          <mxGeometry y="135" width="172" height="22" as="geometry" />
        </mxCell>
        <mxCell id="Cv067esEAor_iLYO7rBp-265" value="resetToken" style="shape=partialRectangle;connectable=0;fillColor=none;top=0;left=0;bottom=0;right=0;align=left;spacingLeft=2;overflow=hidden;fontSize=11;" parent="Cv067esEAor_iLYO7rBp-264" vertex="1">
          <mxGeometry width="96" height="22" as="geometry">
            <mxRectangle width="96" height="22" as="alternateBounds" />
          </mxGeometry>
        </mxCell>
        <mxCell id="Cv067esEAor_iLYO7rBp-266" value="varchar" style="shape=partialRectangle;connectable=0;fillColor=none;top=0;left=0;bottom=0;right=0;align=left;spacingLeft=2;overflow=hidden;fontSize=11;" parent="Cv067esEAor_iLYO7rBp-264" vertex="1">
          <mxGeometry x="96" width="54" height="22" as="geometry">
            <mxRectangle width="54" height="22" as="alternateBounds" />
          </mxGeometry>
        </mxCell>
        <mxCell id="Cv067esEAor_iLYO7rBp-267" value="" style="shape=partialRectangle;connectable=0;fillColor=none;top=0;left=0;bottom=0;right=0;align=left;spacingLeft=2;overflow=hidden;fontSize=11;" parent="Cv067esEAor_iLYO7rBp-264" vertex="1">
          <mxGeometry x="150" width="22" height="22" as="geometry">
            <mxRectangle width="22" height="22" as="alternateBounds" />
          </mxGeometry>
        </mxCell>
        <mxCell id="Cv067esEAor_iLYO7rBp-268" style="shape=tableRow;horizontal=0;startSize=0;swimlaneHead=0;swimlaneBody=0;fillColor=none;collapsible=0;dropTarget=0;points=[[0,0.5],[1,0.5]];portConstraint=eastwest;top=0;left=0;right=0;bottom=0;" parent="Cv067esEAor_iLYO7rBp-243" vertex="1">
          <mxGeometry y="157" width="172" height="22" as="geometry" />
        </mxCell>
        <mxCell id="Cv067esEAor_iLYO7rBp-269" value="resetTokenExpiry" style="shape=partialRectangle;connectable=0;fillColor=none;top=0;left=0;bottom=0;right=0;align=left;spacingLeft=2;overflow=hidden;fontSize=11;" parent="Cv067esEAor_iLYO7rBp-268" vertex="1">
          <mxGeometry width="96" height="22" as="geometry">
            <mxRectangle width="96" height="22" as="alternateBounds" />
          </mxGeometry>
        </mxCell>
        <mxCell id="Cv067esEAor_iLYO7rBp-270" value="datetime" style="shape=partialRectangle;connectable=0;fillColor=none;top=0;left=0;bottom=0;right=0;align=left;spacingLeft=2;overflow=hidden;fontSize=11;" parent="Cv067esEAor_iLYO7rBp-268" vertex="1">
          <mxGeometry x="96" width="54" height="22" as="geometry">
            <mxRectangle width="54" height="22" as="alternateBounds" />
          </mxGeometry>
        </mxCell>
        <mxCell id="Cv067esEAor_iLYO7rBp-271" value="" style="shape=partialRectangle;connectable=0;fillColor=none;top=0;left=0;bottom=0;right=0;align=left;spacingLeft=2;overflow=hidden;fontSize=11;" parent="Cv067esEAor_iLYO7rBp-268" vertex="1">
          <mxGeometry x="150" width="22" height="22" as="geometry">
            <mxRectangle width="22" height="22" as="alternateBounds" />
          </mxGeometry>
        </mxCell>
        <mxCell id="Cv067esEAor_iLYO7rBp-272" style="shape=tableRow;horizontal=0;startSize=0;swimlaneHead=0;swimlaneBody=0;fillColor=none;collapsible=0;dropTarget=0;points=[[0,0.5],[1,0.5]];portConstraint=eastwest;top=0;left=0;right=0;bottom=0;" parent="Cv067esEAor_iLYO7rBp-243" vertex="1">
          <mxGeometry y="179" width="172" height="22" as="geometry" />
        </mxCell>
        <mxCell id="Cv067esEAor_iLYO7rBp-273" value="createdAt" style="shape=partialRectangle;connectable=0;fillColor=none;top=0;left=0;bottom=0;right=0;align=left;spacingLeft=2;overflow=hidden;fontSize=11;" parent="Cv067esEAor_iLYO7rBp-272" vertex="1">
          <mxGeometry width="96" height="22" as="geometry">
            <mxRectangle width="96" height="22" as="alternateBounds" />
          </mxGeometry>
        </mxCell>
        <mxCell id="Cv067esEAor_iLYO7rBp-274" value="timestamp" style="shape=partialRectangle;connectable=0;fillColor=none;top=0;left=0;bottom=0;right=0;align=left;spacingLeft=2;overflow=hidden;fontSize=11;" parent="Cv067esEAor_iLYO7rBp-272" vertex="1">
          <mxGeometry x="96" width="54" height="22" as="geometry">
            <mxRectangle width="54" height="22" as="alternateBounds" />
          </mxGeometry>
        </mxCell>
        <mxCell id="Cv067esEAor_iLYO7rBp-275" value="" style="shape=partialRectangle;connectable=0;fillColor=none;top=0;left=0;bottom=0;right=0;align=left;spacingLeft=2;overflow=hidden;fontSize=11;" parent="Cv067esEAor_iLYO7rBp-272" vertex="1">
          <mxGeometry x="150" width="22" height="22" as="geometry">
            <mxRectangle width="22" height="22" as="alternateBounds" />
          </mxGeometry>
        </mxCell>
        <mxCell id="Cv067esEAor_iLYO7rBp-276" style="shape=tableRow;horizontal=0;startSize=0;swimlaneHead=0;swimlaneBody=0;fillColor=none;collapsible=0;dropTarget=0;points=[[0,0.5],[1,0.5]];portConstraint=eastwest;top=0;left=0;right=0;bottom=0;" parent="Cv067esEAor_iLYO7rBp-243" vertex="1">
          <mxGeometry y="201" width="172" height="22" as="geometry" />
        </mxCell>
        <mxCell id="Cv067esEAor_iLYO7rBp-277" value="updatedAt" style="shape=partialRectangle;connectable=0;fillColor=none;top=0;left=0;bottom=0;right=0;align=left;spacingLeft=2;overflow=hidden;fontSize=11;" parent="Cv067esEAor_iLYO7rBp-276" vertex="1">
          <mxGeometry width="96" height="22" as="geometry">
            <mxRectangle width="96" height="22" as="alternateBounds" />
          </mxGeometry>
        </mxCell>
        <mxCell id="Cv067esEAor_iLYO7rBp-278" value="timestamp" style="shape=partialRectangle;connectable=0;fillColor=none;top=0;left=0;bottom=0;right=0;align=left;spacingLeft=2;overflow=hidden;fontSize=11;" parent="Cv067esEAor_iLYO7rBp-276" vertex="1">
          <mxGeometry x="96" width="54" height="22" as="geometry">
            <mxRectangle width="54" height="22" as="alternateBounds" />
          </mxGeometry>
        </mxCell>
        <mxCell id="Cv067esEAor_iLYO7rBp-279" value="" style="shape=partialRectangle;connectable=0;fillColor=none;top=0;left=0;bottom=0;right=0;align=left;spacingLeft=2;overflow=hidden;fontSize=11;" parent="Cv067esEAor_iLYO7rBp-276" vertex="1">
          <mxGeometry x="150" width="22" height="22" as="geometry">
            <mxRectangle width="22" height="22" as="alternateBounds" />
          </mxGeometry>
        </mxCell>
        <mxCell id="Cv067esEAor_iLYO7rBp-280" value="EMPLOYEE" style="shape=table;startSize=25;container=1;collapsible=0;childLayout=tableLayout;fixedRows=1;rowLines=1;fontStyle=1;align=center;resizeLast=1;movable=1;resizable=1;rotatable=1;deletable=1;editable=1;locked=0;connectable=1;" parent="1" vertex="1">
          <mxGeometry x="-150" y="-840" width="172" height="355" as="geometry" />
        </mxCell>
        <mxCell id="Cv067esEAor_iLYO7rBp-281" style="shape=tableRow;horizontal=0;startSize=0;swimlaneHead=0;swimlaneBody=0;fillColor=none;collapsible=0;dropTarget=0;points=[[0,0.5],[1,0.5]];portConstraint=eastwest;top=0;left=0;right=0;bottom=0;" parent="Cv067esEAor_iLYO7rBp-280" vertex="1">
          <mxGeometry y="25" width="172" height="22" as="geometry" />
        </mxCell>
        <mxCell id="Cv067esEAor_iLYO7rBp-282" value="ID" style="shape=partialRectangle;connectable=0;fillColor=none;top=0;left=0;bottom=0;right=0;align=left;spacingLeft=2;overflow=hidden;fontSize=11;" parent="Cv067esEAor_iLYO7rBp-281" vertex="1">
          <mxGeometry width="96" height="22" as="geometry">
            <mxRectangle width="96" height="22" as="alternateBounds" />
          </mxGeometry>
        </mxCell>
        <mxCell id="Cv067esEAor_iLYO7rBp-283" value="int" style="shape=partialRectangle;connectable=0;fillColor=none;top=0;left=0;bottom=0;right=0;align=left;spacingLeft=2;overflow=hidden;fontSize=11;" parent="Cv067esEAor_iLYO7rBp-281" vertex="1">
          <mxGeometry x="96" width="54" height="22" as="geometry">
            <mxRectangle width="54" height="22" as="alternateBounds" />
          </mxGeometry>
        </mxCell>
        <mxCell id="Cv067esEAor_iLYO7rBp-284" value="PK" style="shape=partialRectangle;connectable=0;fillColor=none;top=0;left=0;bottom=0;right=0;align=left;spacingLeft=2;overflow=hidden;fontSize=11;" parent="Cv067esEAor_iLYO7rBp-281" vertex="1">
          <mxGeometry x="150" width="22" height="22" as="geometry">
            <mxRectangle width="22" height="22" as="alternateBounds" />
          </mxGeometry>
        </mxCell>
        <mxCell id="Cv067esEAor_iLYO7rBp-285" style="shape=tableRow;horizontal=0;startSize=0;swimlaneHead=0;swimlaneBody=0;fillColor=none;collapsible=0;dropTarget=0;points=[[0,0.5],[1,0.5]];portConstraint=eastwest;top=0;left=0;right=0;bottom=0;" parent="Cv067esEAor_iLYO7rBp-280" vertex="1">
          <mxGeometry y="47" width="172" height="22" as="geometry" />
        </mxCell>
        <mxCell id="Cv067esEAor_iLYO7rBp-286" value="USERNAME" style="shape=partialRectangle;connectable=0;fillColor=none;top=0;left=0;bottom=0;right=0;align=left;spacingLeft=2;overflow=hidden;fontSize=11;" parent="Cv067esEAor_iLYO7rBp-285" vertex="1">
          <mxGeometry width="96" height="22" as="geometry">
            <mxRectangle width="96" height="22" as="alternateBounds" />
          </mxGeometry>
        </mxCell>
        <mxCell id="Cv067esEAor_iLYO7rBp-287" value="varchar" style="shape=partialRectangle;connectable=0;fillColor=none;top=0;left=0;bottom=0;right=0;align=left;spacingLeft=2;overflow=hidden;fontSize=11;" parent="Cv067esEAor_iLYO7rBp-285" vertex="1">
          <mxGeometry x="96" width="54" height="22" as="geometry">
            <mxRectangle width="54" height="22" as="alternateBounds" />
          </mxGeometry>
        </mxCell>
        <mxCell id="Cv067esEAor_iLYO7rBp-288" value="" style="shape=partialRectangle;connectable=0;fillColor=none;top=0;left=0;bottom=0;right=0;align=left;spacingLeft=2;overflow=hidden;fontSize=11;" parent="Cv067esEAor_iLYO7rBp-285" vertex="1">
          <mxGeometry x="150" width="22" height="22" as="geometry">
            <mxRectangle width="22" height="22" as="alternateBounds" />
          </mxGeometry>
        </mxCell>
        <mxCell id="Cv067esEAor_iLYO7rBp-289" style="shape=tableRow;horizontal=0;startSize=0;swimlaneHead=0;swimlaneBody=0;fillColor=none;collapsible=0;dropTarget=0;points=[[0,0.5],[1,0.5]];portConstraint=eastwest;top=0;left=0;right=0;bottom=0;" parent="Cv067esEAor_iLYO7rBp-280" vertex="1">
          <mxGeometry y="69" width="172" height="22" as="geometry" />
        </mxCell>
        <mxCell id="Cv067esEAor_iLYO7rBp-290" value="EMAIL" style="shape=partialRectangle;connectable=0;fillColor=none;top=0;left=0;bottom=0;right=0;align=left;spacingLeft=2;overflow=hidden;fontSize=11;" parent="Cv067esEAor_iLYO7rBp-289" vertex="1">
          <mxGeometry width="96" height="22" as="geometry">
            <mxRectangle width="96" height="22" as="alternateBounds" />
          </mxGeometry>
        </mxCell>
        <mxCell id="Cv067esEAor_iLYO7rBp-291" value="varchar" style="shape=partialRectangle;connectable=0;fillColor=none;top=0;left=0;bottom=0;right=0;align=left;spacingLeft=2;overflow=hidden;fontSize=11;" parent="Cv067esEAor_iLYO7rBp-289" vertex="1">
          <mxGeometry x="96" width="54" height="22" as="geometry">
            <mxRectangle width="54" height="22" as="alternateBounds" />
          </mxGeometry>
        </mxCell>
        <mxCell id="Cv067esEAor_iLYO7rBp-292" value="" style="shape=partialRectangle;connectable=0;fillColor=none;top=0;left=0;bottom=0;right=0;align=left;spacingLeft=2;overflow=hidden;fontSize=11;" parent="Cv067esEAor_iLYO7rBp-289" vertex="1">
          <mxGeometry x="150" width="22" height="22" as="geometry">
            <mxRectangle width="22" height="22" as="alternateBounds" />
          </mxGeometry>
        </mxCell>
        <mxCell id="Cv067esEAor_iLYO7rBp-293" style="shape=tableRow;horizontal=0;startSize=0;swimlaneHead=0;swimlaneBody=0;fillColor=none;collapsible=0;dropTarget=0;points=[[0,0.5],[1,0.5]];portConstraint=eastwest;top=0;left=0;right=0;bottom=0;" parent="Cv067esEAor_iLYO7rBp-280" vertex="1">
          <mxGeometry y="91" width="172" height="22" as="geometry" />
        </mxCell>
        <mxCell id="Cv067esEAor_iLYO7rBp-294" value="F_NAME" style="shape=partialRectangle;connectable=0;fillColor=none;top=0;left=0;bottom=0;right=0;align=left;spacingLeft=2;overflow=hidden;fontSize=11;" parent="Cv067esEAor_iLYO7rBp-293" vertex="1">
          <mxGeometry width="96" height="22" as="geometry">
            <mxRectangle width="96" height="22" as="alternateBounds" />
          </mxGeometry>
        </mxCell>
        <mxCell id="Cv067esEAor_iLYO7rBp-295" value="varchar" style="shape=partialRectangle;connectable=0;fillColor=none;top=0;left=0;bottom=0;right=0;align=left;spacingLeft=2;overflow=hidden;fontSize=11;" parent="Cv067esEAor_iLYO7rBp-293" vertex="1">
          <mxGeometry x="96" width="54" height="22" as="geometry">
            <mxRectangle width="54" height="22" as="alternateBounds" />
          </mxGeometry>
        </mxCell>
        <mxCell id="Cv067esEAor_iLYO7rBp-296" value="" style="shape=partialRectangle;connectable=0;fillColor=none;top=0;left=0;bottom=0;right=0;align=left;spacingLeft=2;overflow=hidden;fontSize=11;" parent="Cv067esEAor_iLYO7rBp-293" vertex="1">
          <mxGeometry x="150" width="22" height="22" as="geometry">
            <mxRectangle width="22" height="22" as="alternateBounds" />
          </mxGeometry>
        </mxCell>
        <mxCell id="Cv067esEAor_iLYO7rBp-297" style="shape=tableRow;horizontal=0;startSize=0;swimlaneHead=0;swimlaneBody=0;fillColor=none;collapsible=0;dropTarget=0;points=[[0,0.5],[1,0.5]];portConstraint=eastwest;top=0;left=0;right=0;bottom=0;" parent="Cv067esEAor_iLYO7rBp-280" vertex="1">
          <mxGeometry y="113" width="172" height="22" as="geometry" />
        </mxCell>
        <mxCell id="Cv067esEAor_iLYO7rBp-298" value="L_NAME" style="shape=partialRectangle;connectable=0;fillColor=none;top=0;left=0;bottom=0;right=0;align=left;spacingLeft=2;overflow=hidden;fontSize=11;" parent="Cv067esEAor_iLYO7rBp-297" vertex="1">
          <mxGeometry width="96" height="22" as="geometry">
            <mxRectangle width="96" height="22" as="alternateBounds" />
          </mxGeometry>
        </mxCell>
        <mxCell id="Cv067esEAor_iLYO7rBp-299" value="varchar" style="shape=partialRectangle;connectable=0;fillColor=none;top=0;left=0;bottom=0;right=0;align=left;spacingLeft=2;overflow=hidden;fontSize=11;" parent="Cv067esEAor_iLYO7rBp-297" vertex="1">
          <mxGeometry x="96" width="54" height="22" as="geometry">
            <mxRectangle width="54" height="22" as="alternateBounds" />
          </mxGeometry>
        </mxCell>
        <mxCell id="Cv067esEAor_iLYO7rBp-300" value="" style="shape=partialRectangle;connectable=0;fillColor=none;top=0;left=0;bottom=0;right=0;align=left;spacingLeft=2;overflow=hidden;fontSize=11;" parent="Cv067esEAor_iLYO7rBp-297" vertex="1">
          <mxGeometry x="150" width="22" height="22" as="geometry">
            <mxRectangle width="22" height="22" as="alternateBounds" />
          </mxGeometry>
        </mxCell>
        <mxCell id="Cv067esEAor_iLYO7rBp-301" style="shape=tableRow;horizontal=0;startSize=0;swimlaneHead=0;swimlaneBody=0;fillColor=none;collapsible=0;dropTarget=0;points=[[0,0.5],[1,0.5]];portConstraint=eastwest;top=0;left=0;right=0;bottom=0;" parent="Cv067esEAor_iLYO7rBp-280" vertex="1">
          <mxGeometry y="135" width="172" height="22" as="geometry" />
        </mxCell>
        <mxCell id="Cv067esEAor_iLYO7rBp-302" value="PASSWORD" style="shape=partialRectangle;connectable=0;fillColor=none;top=0;left=0;bottom=0;right=0;align=left;spacingLeft=2;overflow=hidden;fontSize=11;" parent="Cv067esEAor_iLYO7rBp-301" vertex="1">
          <mxGeometry width="96" height="22" as="geometry">
            <mxRectangle width="96" height="22" as="alternateBounds" />
          </mxGeometry>
        </mxCell>
        <mxCell id="Cv067esEAor_iLYO7rBp-303" value="varchar" style="shape=partialRectangle;connectable=0;fillColor=none;top=0;left=0;bottom=0;right=0;align=left;spacingLeft=2;overflow=hidden;fontSize=11;" parent="Cv067esEAor_iLYO7rBp-301" vertex="1">
          <mxGeometry x="96" width="54" height="22" as="geometry">
            <mxRectangle width="54" height="22" as="alternateBounds" />
          </mxGeometry>
        </mxCell>
        <mxCell id="Cv067esEAor_iLYO7rBp-304" value="" style="shape=partialRectangle;connectable=0;fillColor=none;top=0;left=0;bottom=0;right=0;align=left;spacingLeft=2;overflow=hidden;fontSize=11;" parent="Cv067esEAor_iLYO7rBp-301" vertex="1">
          <mxGeometry x="150" width="22" height="22" as="geometry">
            <mxRectangle width="22" height="22" as="alternateBounds" />
          </mxGeometry>
        </mxCell>
        <mxCell id="Cv067esEAor_iLYO7rBp-305" style="shape=tableRow;horizontal=0;startSize=0;swimlaneHead=0;swimlaneBody=0;fillColor=none;collapsible=0;dropTarget=0;points=[[0,0.5],[1,0.5]];portConstraint=eastwest;top=0;left=0;right=0;bottom=0;" parent="Cv067esEAor_iLYO7rBp-280" vertex="1">
          <mxGeometry y="157" width="172" height="22" as="geometry" />
        </mxCell>
        <mxCell id="Cv067esEAor_iLYO7rBp-306" value="PHONE_NUM" style="shape=partialRectangle;connectable=0;fillColor=none;top=0;left=0;bottom=0;right=0;align=left;spacingLeft=2;overflow=hidden;fontSize=11;" parent="Cv067esEAor_iLYO7rBp-305" vertex="1">
          <mxGeometry width="96" height="22" as="geometry">
            <mxRectangle width="96" height="22" as="alternateBounds" />
          </mxGeometry>
        </mxCell>
        <mxCell id="Cv067esEAor_iLYO7rBp-307" value="varchar" style="shape=partialRectangle;connectable=0;fillColor=none;top=0;left=0;bottom=0;right=0;align=left;spacingLeft=2;overflow=hidden;fontSize=11;" parent="Cv067esEAor_iLYO7rBp-305" vertex="1">
          <mxGeometry x="96" width="54" height="22" as="geometry">
            <mxRectangle width="54" height="22" as="alternateBounds" />
          </mxGeometry>
        </mxCell>
        <mxCell id="Cv067esEAor_iLYO7rBp-308" value="" style="shape=partialRectangle;connectable=0;fillColor=none;top=0;left=0;bottom=0;right=0;align=left;spacingLeft=2;overflow=hidden;fontSize=11;" parent="Cv067esEAor_iLYO7rBp-305" vertex="1">
          <mxGeometry x="150" width="22" height="22" as="geometry">
            <mxRectangle width="22" height="22" as="alternateBounds" />
          </mxGeometry>
        </mxCell>
        <mxCell id="Cv067esEAor_iLYO7rBp-309" style="shape=tableRow;horizontal=0;startSize=0;swimlaneHead=0;swimlaneBody=0;fillColor=none;collapsible=0;dropTarget=0;points=[[0,0.5],[1,0.5]];portConstraint=eastwest;top=0;left=0;right=0;bottom=0;" parent="Cv067esEAor_iLYO7rBp-280" vertex="1">
          <mxGeometry y="179" width="172" height="22" as="geometry" />
        </mxCell>
        <mxCell id="Cv067esEAor_iLYO7rBp-310" value="ENTRY_DATE" style="shape=partialRectangle;connectable=0;fillColor=none;top=0;left=0;bottom=0;right=0;align=left;spacingLeft=2;overflow=hidden;fontSize=11;" parent="Cv067esEAor_iLYO7rBp-309" vertex="1">
          <mxGeometry width="96" height="22" as="geometry">
            <mxRectangle width="96" height="22" as="alternateBounds" />
          </mxGeometry>
        </mxCell>
        <mxCell id="Cv067esEAor_iLYO7rBp-311" value="datetime" style="shape=partialRectangle;connectable=0;fillColor=none;top=0;left=0;bottom=0;right=0;align=left;spacingLeft=2;overflow=hidden;fontSize=11;" parent="Cv067esEAor_iLYO7rBp-309" vertex="1">
          <mxGeometry x="96" width="54" height="22" as="geometry">
            <mxRectangle width="54" height="22" as="alternateBounds" />
          </mxGeometry>
        </mxCell>
        <mxCell id="Cv067esEAor_iLYO7rBp-312" value="" style="shape=partialRectangle;connectable=0;fillColor=none;top=0;left=0;bottom=0;right=0;align=left;spacingLeft=2;overflow=hidden;fontSize=11;" parent="Cv067esEAor_iLYO7rBp-309" vertex="1">
          <mxGeometry x="150" width="22" height="22" as="geometry">
            <mxRectangle width="22" height="22" as="alternateBounds" />
          </mxGeometry>
        </mxCell>
        <mxCell id="Cv067esEAor_iLYO7rBp-313" style="shape=tableRow;horizontal=0;startSize=0;swimlaneHead=0;swimlaneBody=0;fillColor=none;collapsible=0;dropTarget=0;points=[[0,0.5],[1,0.5]];portConstraint=eastwest;top=0;left=0;right=0;bottom=0;" parent="Cv067esEAor_iLYO7rBp-280" vertex="1">
          <mxGeometry y="201" width="172" height="22" as="geometry" />
        </mxCell>
        <mxCell id="Cv067esEAor_iLYO7rBp-314" value="ROLE" style="shape=partialRectangle;connectable=0;fillColor=none;top=0;left=0;bottom=0;right=0;align=left;spacingLeft=2;overflow=hidden;fontSize=11;" parent="Cv067esEAor_iLYO7rBp-313" vertex="1">
          <mxGeometry width="96" height="22" as="geometry">
            <mxRectangle width="96" height="22" as="alternateBounds" />
          </mxGeometry>
        </mxCell>
        <mxCell id="Cv067esEAor_iLYO7rBp-315" value="varchar" style="shape=partialRectangle;connectable=0;fillColor=none;top=0;left=0;bottom=0;right=0;align=left;spacingLeft=2;overflow=hidden;fontSize=11;" parent="Cv067esEAor_iLYO7rBp-313" vertex="1">
          <mxGeometry x="96" width="54" height="22" as="geometry">
            <mxRectangle width="54" height="22" as="alternateBounds" />
          </mxGeometry>
        </mxCell>
        <mxCell id="Cv067esEAor_iLYO7rBp-316" value="" style="shape=partialRectangle;connectable=0;fillColor=none;top=0;left=0;bottom=0;right=0;align=left;spacingLeft=2;overflow=hidden;fontSize=11;" parent="Cv067esEAor_iLYO7rBp-313" vertex="1">
          <mxGeometry x="150" width="22" height="22" as="geometry">
            <mxRectangle width="22" height="22" as="alternateBounds" />
          </mxGeometry>
        </mxCell>
        <mxCell id="Cv067esEAor_iLYO7rBp-317" style="shape=tableRow;horizontal=0;startSize=0;swimlaneHead=0;swimlaneBody=0;fillColor=none;collapsible=0;dropTarget=0;points=[[0,0.5],[1,0.5]];portConstraint=eastwest;top=0;left=0;right=0;bottom=0;" parent="Cv067esEAor_iLYO7rBp-280" vertex="1">
          <mxGeometry y="223" width="172" height="22" as="geometry" />
        </mxCell>
        <mxCell id="Cv067esEAor_iLYO7rBp-318" value="PHONE_NUM1" style="shape=partialRectangle;connectable=0;fillColor=none;top=0;left=0;bottom=0;right=0;align=left;spacingLeft=2;overflow=hidden;fontSize=11;" parent="Cv067esEAor_iLYO7rBp-317" vertex="1">
          <mxGeometry width="96" height="22" as="geometry">
            <mxRectangle width="96" height="22" as="alternateBounds" />
          </mxGeometry>
        </mxCell>
        <mxCell id="Cv067esEAor_iLYO7rBp-319" value="varchar" style="shape=partialRectangle;connectable=0;fillColor=none;top=0;left=0;bottom=0;right=0;align=left;spacingLeft=2;overflow=hidden;fontSize=11;" parent="Cv067esEAor_iLYO7rBp-317" vertex="1">
          <mxGeometry x="96" width="54" height="22" as="geometry">
            <mxRectangle width="54" height="22" as="alternateBounds" />
          </mxGeometry>
        </mxCell>
        <mxCell id="Cv067esEAor_iLYO7rBp-320" value="" style="shape=partialRectangle;connectable=0;fillColor=none;top=0;left=0;bottom=0;right=0;align=left;spacingLeft=2;overflow=hidden;fontSize=11;" parent="Cv067esEAor_iLYO7rBp-317" vertex="1">
          <mxGeometry x="150" width="22" height="22" as="geometry">
            <mxRectangle width="22" height="22" as="alternateBounds" />
          </mxGeometry>
        </mxCell>
        <mxCell id="Cv067esEAor_iLYO7rBp-321" style="shape=tableRow;horizontal=0;startSize=0;swimlaneHead=0;swimlaneBody=0;fillColor=none;collapsible=0;dropTarget=0;points=[[0,0.5],[1,0.5]];portConstraint=eastwest;top=0;left=0;right=0;bottom=0;" parent="Cv067esEAor_iLYO7rBp-280" vertex="1">
          <mxGeometry y="245" width="172" height="22" as="geometry" />
        </mxCell>
        <mxCell id="Cv067esEAor_iLYO7rBp-322" value="PHONE_NUM2" style="shape=partialRectangle;connectable=0;fillColor=none;top=0;left=0;bottom=0;right=0;align=left;spacingLeft=2;overflow=hidden;fontSize=11;" parent="Cv067esEAor_iLYO7rBp-321" vertex="1">
          <mxGeometry width="96" height="22" as="geometry">
            <mxRectangle width="96" height="22" as="alternateBounds" />
          </mxGeometry>
        </mxCell>
        <mxCell id="Cv067esEAor_iLYO7rBp-323" value="varchar" style="shape=partialRectangle;connectable=0;fillColor=none;top=0;left=0;bottom=0;right=0;align=left;spacingLeft=2;overflow=hidden;fontSize=11;" parent="Cv067esEAor_iLYO7rBp-321" vertex="1">
          <mxGeometry x="96" width="54" height="22" as="geometry">
            <mxRectangle width="54" height="22" as="alternateBounds" />
          </mxGeometry>
        </mxCell>
        <mxCell id="Cv067esEAor_iLYO7rBp-324" value="" style="shape=partialRectangle;connectable=0;fillColor=none;top=0;left=0;bottom=0;right=0;align=left;spacingLeft=2;overflow=hidden;fontSize=11;" parent="Cv067esEAor_iLYO7rBp-321" vertex="1">
          <mxGeometry x="150" width="22" height="22" as="geometry">
            <mxRectangle width="22" height="22" as="alternateBounds" />
          </mxGeometry>
        </mxCell>
        <mxCell id="Cv067esEAor_iLYO7rBp-325" style="shape=tableRow;horizontal=0;startSize=0;swimlaneHead=0;swimlaneBody=0;fillColor=none;collapsible=0;dropTarget=0;points=[[0,0.5],[1,0.5]];portConstraint=eastwest;top=0;left=0;right=0;bottom=0;" parent="Cv067esEAor_iLYO7rBp-280" vertex="1">
          <mxGeometry y="267" width="172" height="22" as="geometry" />
        </mxCell>
        <mxCell id="Cv067esEAor_iLYO7rBp-326" value="resetToken" style="shape=partialRectangle;connectable=0;fillColor=none;top=0;left=0;bottom=0;right=0;align=left;spacingLeft=2;overflow=hidden;fontSize=11;" parent="Cv067esEAor_iLYO7rBp-325" vertex="1">
          <mxGeometry width="96" height="22" as="geometry">
            <mxRectangle width="96" height="22" as="alternateBounds" />
          </mxGeometry>
        </mxCell>
        <mxCell id="Cv067esEAor_iLYO7rBp-327" value="varchar" style="shape=partialRectangle;connectable=0;fillColor=none;top=0;left=0;bottom=0;right=0;align=left;spacingLeft=2;overflow=hidden;fontSize=11;" parent="Cv067esEAor_iLYO7rBp-325" vertex="1">
          <mxGeometry x="96" width="54" height="22" as="geometry">
            <mxRectangle width="54" height="22" as="alternateBounds" />
          </mxGeometry>
        </mxCell>
        <mxCell id="Cv067esEAor_iLYO7rBp-328" value="" style="shape=partialRectangle;connectable=0;fillColor=none;top=0;left=0;bottom=0;right=0;align=left;spacingLeft=2;overflow=hidden;fontSize=11;" parent="Cv067esEAor_iLYO7rBp-325" vertex="1">
          <mxGeometry x="150" width="22" height="22" as="geometry">
            <mxRectangle width="22" height="22" as="alternateBounds" />
          </mxGeometry>
        </mxCell>
        <mxCell id="Cv067esEAor_iLYO7rBp-329" style="shape=tableRow;horizontal=0;startSize=0;swimlaneHead=0;swimlaneBody=0;fillColor=none;collapsible=0;dropTarget=0;points=[[0,0.5],[1,0.5]];portConstraint=eastwest;top=0;left=0;right=0;bottom=0;" parent="Cv067esEAor_iLYO7rBp-280" vertex="1">
          <mxGeometry y="289" width="172" height="22" as="geometry" />
        </mxCell>
        <mxCell id="Cv067esEAor_iLYO7rBp-330" value="resetTokenExpiry" style="shape=partialRectangle;connectable=0;fillColor=none;top=0;left=0;bottom=0;right=0;align=left;spacingLeft=2;overflow=hidden;fontSize=11;" parent="Cv067esEAor_iLYO7rBp-329" vertex="1">
          <mxGeometry width="96" height="22" as="geometry">
            <mxRectangle width="96" height="22" as="alternateBounds" />
          </mxGeometry>
        </mxCell>
        <mxCell id="Cv067esEAor_iLYO7rBp-331" value="datetime" style="shape=partialRectangle;connectable=0;fillColor=none;top=0;left=0;bottom=0;right=0;align=left;spacingLeft=2;overflow=hidden;fontSize=11;" parent="Cv067esEAor_iLYO7rBp-329" vertex="1">
          <mxGeometry x="96" width="54" height="22" as="geometry">
            <mxRectangle width="54" height="22" as="alternateBounds" />
          </mxGeometry>
        </mxCell>
        <mxCell id="Cv067esEAor_iLYO7rBp-332" value="" style="shape=partialRectangle;connectable=0;fillColor=none;top=0;left=0;bottom=0;right=0;align=left;spacingLeft=2;overflow=hidden;fontSize=11;" parent="Cv067esEAor_iLYO7rBp-329" vertex="1">
          <mxGeometry x="150" width="22" height="22" as="geometry">
            <mxRectangle width="22" height="22" as="alternateBounds" />
          </mxGeometry>
        </mxCell>
        <mxCell id="Cv067esEAor_iLYO7rBp-333" style="shape=tableRow;horizontal=0;startSize=0;swimlaneHead=0;swimlaneBody=0;fillColor=none;collapsible=0;dropTarget=0;points=[[0,0.5],[1,0.5]];portConstraint=eastwest;top=0;left=0;right=0;bottom=0;" parent="Cv067esEAor_iLYO7rBp-280" vertex="1">
          <mxGeometry y="311" width="172" height="22" as="geometry" />
        </mxCell>
        <mxCell id="Cv067esEAor_iLYO7rBp-334" value="createdAt" style="shape=partialRectangle;connectable=0;fillColor=none;top=0;left=0;bottom=0;right=0;align=left;spacingLeft=2;overflow=hidden;fontSize=11;" parent="Cv067esEAor_iLYO7rBp-333" vertex="1">
          <mxGeometry width="96" height="22" as="geometry">
            <mxRectangle width="96" height="22" as="alternateBounds" />
          </mxGeometry>
        </mxCell>
        <mxCell id="Cv067esEAor_iLYO7rBp-335" value="timestamp" style="shape=partialRectangle;connectable=0;fillColor=none;top=0;left=0;bottom=0;right=0;align=left;spacingLeft=2;overflow=hidden;fontSize=11;" parent="Cv067esEAor_iLYO7rBp-333" vertex="1">
          <mxGeometry x="96" width="54" height="22" as="geometry">
            <mxRectangle width="54" height="22" as="alternateBounds" />
          </mxGeometry>
        </mxCell>
        <mxCell id="Cv067esEAor_iLYO7rBp-336" value="" style="shape=partialRectangle;connectable=0;fillColor=none;top=0;left=0;bottom=0;right=0;align=left;spacingLeft=2;overflow=hidden;fontSize=11;" parent="Cv067esEAor_iLYO7rBp-333" vertex="1">
          <mxGeometry x="150" width="22" height="22" as="geometry">
            <mxRectangle width="22" height="22" as="alternateBounds" />
          </mxGeometry>
        </mxCell>
        <mxCell id="Cv067esEAor_iLYO7rBp-337" style="shape=tableRow;horizontal=0;startSize=0;swimlaneHead=0;swimlaneBody=0;fillColor=none;collapsible=0;dropTarget=0;points=[[0,0.5],[1,0.5]];portConstraint=eastwest;top=0;left=0;right=0;bottom=0;" parent="Cv067esEAor_iLYO7rBp-280" vertex="1">
          <mxGeometry y="333" width="172" height="22" as="geometry" />
        </mxCell>
        <mxCell id="Cv067esEAor_iLYO7rBp-338" value="updatedAt" style="shape=partialRectangle;connectable=0;fillColor=none;top=0;left=0;bottom=0;right=0;align=left;spacingLeft=2;overflow=hidden;fontSize=11;" parent="Cv067esEAor_iLYO7rBp-337" vertex="1">
          <mxGeometry width="96" height="22" as="geometry">
            <mxRectangle width="96" height="22" as="alternateBounds" />
          </mxGeometry>
        </mxCell>
        <mxCell id="Cv067esEAor_iLYO7rBp-339" value="timestamp" style="shape=partialRectangle;connectable=0;fillColor=none;top=0;left=0;bottom=0;right=0;align=left;spacingLeft=2;overflow=hidden;fontSize=11;" parent="Cv067esEAor_iLYO7rBp-337" vertex="1">
          <mxGeometry x="96" width="54" height="22" as="geometry">
            <mxRectangle width="54" height="22" as="alternateBounds" />
          </mxGeometry>
        </mxCell>
        <mxCell id="Cv067esEAor_iLYO7rBp-340" value="" style="shape=partialRectangle;connectable=0;fillColor=none;top=0;left=0;bottom=0;right=0;align=left;spacingLeft=2;overflow=hidden;fontSize=11;" parent="Cv067esEAor_iLYO7rBp-337" vertex="1">
          <mxGeometry x="150" width="22" height="22" as="geometry">
            <mxRectangle width="22" height="22" as="alternateBounds" />
          </mxGeometry>
        </mxCell>
        <mxCell id="aV815E0Qi508MG-vV4y0-1" style="edgeStyle=orthogonalEdgeStyle;rounded=0;orthogonalLoop=1;jettySize=auto;html=1;entryX=1;entryY=0.75;entryDx=0;entryDy=0;" edge="1" parent="1" source="Cv067esEAor_iLYO7rBp-341" target="Cv067esEAor_iLYO7rBp-280">
          <mxGeometry relative="1" as="geometry" />
        </mxCell>
        <mxCell id="Cv067esEAor_iLYO7rBp-341" value="ADMINS" style="shape=table;startSize=25;container=1;collapsible=0;childLayout=tableLayout;fixedRows=1;rowLines=1;fontStyle=1;align=center;resizeLast=1;movable=1;resizable=1;rotatable=1;deletable=1;editable=1;locked=0;connectable=1;" parent="1" vertex="1">
          <mxGeometry x="100" y="-520" width="172" height="223" as="geometry" />
        </mxCell>
        <mxCell id="Cv067esEAor_iLYO7rBp-342" style="shape=tableRow;horizontal=0;startSize=0;swimlaneHead=0;swimlaneBody=0;fillColor=none;collapsible=0;dropTarget=0;points=[[0,0.5],[1,0.5]];portConstraint=eastwest;top=0;left=0;right=0;bottom=0;" parent="Cv067esEAor_iLYO7rBp-341" vertex="1">
          <mxGeometry y="25" width="172" height="22" as="geometry" />
        </mxCell>
        <mxCell id="Cv067esEAor_iLYO7rBp-343" value="ID" style="shape=partialRectangle;connectable=0;fillColor=none;top=0;left=0;bottom=0;right=0;align=left;spacingLeft=2;overflow=hidden;fontSize=11;" parent="Cv067esEAor_iLYO7rBp-342" vertex="1">
          <mxGeometry width="96" height="22" as="geometry">
            <mxRectangle width="96" height="22" as="alternateBounds" />
          </mxGeometry>
        </mxCell>
        <mxCell id="Cv067esEAor_iLYO7rBp-344" value="int" style="shape=partialRectangle;connectable=0;fillColor=none;top=0;left=0;bottom=0;right=0;align=left;spacingLeft=2;overflow=hidden;fontSize=11;" parent="Cv067esEAor_iLYO7rBp-342" vertex="1">
          <mxGeometry x="96" width="54" height="22" as="geometry">
            <mxRectangle width="54" height="22" as="alternateBounds" />
          </mxGeometry>
        </mxCell>
        <mxCell id="Cv067esEAor_iLYO7rBp-345" value="PK" style="shape=partialRectangle;connectable=0;fillColor=none;top=0;left=0;bottom=0;right=0;align=left;spacingLeft=2;overflow=hidden;fontSize=11;" parent="Cv067esEAor_iLYO7rBp-342" vertex="1">
          <mxGeometry x="150" width="22" height="22" as="geometry">
            <mxRectangle width="22" height="22" as="alternateBounds" />
          </mxGeometry>
        </mxCell>
        <mxCell id="Cv067esEAor_iLYO7rBp-346" style="shape=tableRow;horizontal=0;startSize=0;swimlaneHead=0;swimlaneBody=0;fillColor=none;collapsible=0;dropTarget=0;points=[[0,0.5],[1,0.5]];portConstraint=eastwest;top=0;left=0;right=0;bottom=0;" parent="Cv067esEAor_iLYO7rBp-341" vertex="1">
          <mxGeometry y="47" width="172" height="22" as="geometry" />
        </mxCell>
        <mxCell id="Cv067esEAor_iLYO7rBp-347" value="NAME" style="shape=partialRectangle;connectable=0;fillColor=none;top=0;left=0;bottom=0;right=0;align=left;spacingLeft=2;overflow=hidden;fontSize=11;" parent="Cv067esEAor_iLYO7rBp-346" vertex="1">
          <mxGeometry width="96" height="22" as="geometry">
            <mxRectangle width="96" height="22" as="alternateBounds" />
          </mxGeometry>
        </mxCell>
        <mxCell id="Cv067esEAor_iLYO7rBp-348" value="varchar" style="shape=partialRectangle;connectable=0;fillColor=none;top=0;left=0;bottom=0;right=0;align=left;spacingLeft=2;overflow=hidden;fontSize=11;" parent="Cv067esEAor_iLYO7rBp-346" vertex="1">
          <mxGeometry x="96" width="54" height="22" as="geometry">
            <mxRectangle width="54" height="22" as="alternateBounds" />
          </mxGeometry>
        </mxCell>
        <mxCell id="Cv067esEAor_iLYO7rBp-349" value="" style="shape=partialRectangle;connectable=0;fillColor=none;top=0;left=0;bottom=0;right=0;align=left;spacingLeft=2;overflow=hidden;fontSize=11;" parent="Cv067esEAor_iLYO7rBp-346" vertex="1">
          <mxGeometry x="150" width="22" height="22" as="geometry">
            <mxRectangle width="22" height="22" as="alternateBounds" />
          </mxGeometry>
        </mxCell>
        <mxCell id="Cv067esEAor_iLYO7rBp-350" style="shape=tableRow;horizontal=0;startSize=0;swimlaneHead=0;swimlaneBody=0;fillColor=none;collapsible=0;dropTarget=0;points=[[0,0.5],[1,0.5]];portConstraint=eastwest;top=0;left=0;right=0;bottom=0;" parent="Cv067esEAor_iLYO7rBp-341" vertex="1">
          <mxGeometry y="69" width="172" height="22" as="geometry" />
        </mxCell>
        <mxCell id="Cv067esEAor_iLYO7rBp-351" value="EMAIL" style="shape=partialRectangle;connectable=0;fillColor=none;top=0;left=0;bottom=0;right=0;align=left;spacingLeft=2;overflow=hidden;fontSize=11;" parent="Cv067esEAor_iLYO7rBp-350" vertex="1">
          <mxGeometry width="96" height="22" as="geometry">
            <mxRectangle width="96" height="22" as="alternateBounds" />
          </mxGeometry>
        </mxCell>
        <mxCell id="Cv067esEAor_iLYO7rBp-352" value="varchar" style="shape=partialRectangle;connectable=0;fillColor=none;top=0;left=0;bottom=0;right=0;align=left;spacingLeft=2;overflow=hidden;fontSize=11;" parent="Cv067esEAor_iLYO7rBp-350" vertex="1">
          <mxGeometry x="96" width="54" height="22" as="geometry">
            <mxRectangle width="54" height="22" as="alternateBounds" />
          </mxGeometry>
        </mxCell>
        <mxCell id="Cv067esEAor_iLYO7rBp-353" value="" style="shape=partialRectangle;connectable=0;fillColor=none;top=0;left=0;bottom=0;right=0;align=left;spacingLeft=2;overflow=hidden;fontSize=11;" parent="Cv067esEAor_iLYO7rBp-350" vertex="1">
          <mxGeometry x="150" width="22" height="22" as="geometry">
            <mxRectangle width="22" height="22" as="alternateBounds" />
          </mxGeometry>
        </mxCell>
        <mxCell id="Cv067esEAor_iLYO7rBp-354" style="shape=tableRow;horizontal=0;startSize=0;swimlaneHead=0;swimlaneBody=0;fillColor=none;collapsible=0;dropTarget=0;points=[[0,0.5],[1,0.5]];portConstraint=eastwest;top=0;left=0;right=0;bottom=0;" parent="Cv067esEAor_iLYO7rBp-341" vertex="1">
          <mxGeometry y="91" width="172" height="22" as="geometry" />
        </mxCell>
        <mxCell id="Cv067esEAor_iLYO7rBp-355" value="PHONE_NUM" style="shape=partialRectangle;connectable=0;fillColor=none;top=0;left=0;bottom=0;right=0;align=left;spacingLeft=2;overflow=hidden;fontSize=11;" parent="Cv067esEAor_iLYO7rBp-354" vertex="1">
          <mxGeometry width="96" height="22" as="geometry">
            <mxRectangle width="96" height="22" as="alternateBounds" />
          </mxGeometry>
        </mxCell>
        <mxCell id="Cv067esEAor_iLYO7rBp-356" value="varchar" style="shape=partialRectangle;connectable=0;fillColor=none;top=0;left=0;bottom=0;right=0;align=left;spacingLeft=2;overflow=hidden;fontSize=11;" parent="Cv067esEAor_iLYO7rBp-354" vertex="1">
          <mxGeometry x="96" width="54" height="22" as="geometry">
            <mxRectangle width="54" height="22" as="alternateBounds" />
          </mxGeometry>
        </mxCell>
        <mxCell id="Cv067esEAor_iLYO7rBp-357" value="" style="shape=partialRectangle;connectable=0;fillColor=none;top=0;left=0;bottom=0;right=0;align=left;spacingLeft=2;overflow=hidden;fontSize=11;" parent="Cv067esEAor_iLYO7rBp-354" vertex="1">
          <mxGeometry x="150" width="22" height="22" as="geometry">
            <mxRectangle width="22" height="22" as="alternateBounds" />
          </mxGeometry>
        </mxCell>
        <mxCell id="Cv067esEAor_iLYO7rBp-358" style="shape=tableRow;horizontal=0;startSize=0;swimlaneHead=0;swimlaneBody=0;fillColor=none;collapsible=0;dropTarget=0;points=[[0,0.5],[1,0.5]];portConstraint=eastwest;top=0;left=0;right=0;bottom=0;" parent="Cv067esEAor_iLYO7rBp-341" vertex="1">
          <mxGeometry y="113" width="172" height="22" as="geometry" />
        </mxCell>
        <mxCell id="Cv067esEAor_iLYO7rBp-359" value="PASSWORD" style="shape=partialRectangle;connectable=0;fillColor=none;top=0;left=0;bottom=0;right=0;align=left;spacingLeft=2;overflow=hidden;fontSize=11;" parent="Cv067esEAor_iLYO7rBp-358" vertex="1">
          <mxGeometry width="96" height="22" as="geometry">
            <mxRectangle width="96" height="22" as="alternateBounds" />
          </mxGeometry>
        </mxCell>
        <mxCell id="Cv067esEAor_iLYO7rBp-360" value="varchar" style="shape=partialRectangle;connectable=0;fillColor=none;top=0;left=0;bottom=0;right=0;align=left;spacingLeft=2;overflow=hidden;fontSize=11;" parent="Cv067esEAor_iLYO7rBp-358" vertex="1">
          <mxGeometry x="96" width="54" height="22" as="geometry">
            <mxRectangle width="54" height="22" as="alternateBounds" />
          </mxGeometry>
        </mxCell>
        <mxCell id="Cv067esEAor_iLYO7rBp-361" value="" style="shape=partialRectangle;connectable=0;fillColor=none;top=0;left=0;bottom=0;right=0;align=left;spacingLeft=2;overflow=hidden;fontSize=11;" parent="Cv067esEAor_iLYO7rBp-358" vertex="1">
          <mxGeometry x="150" width="22" height="22" as="geometry">
            <mxRectangle width="22" height="22" as="alternateBounds" />
          </mxGeometry>
        </mxCell>
        <mxCell id="Cv067esEAor_iLYO7rBp-362" style="shape=tableRow;horizontal=0;startSize=0;swimlaneHead=0;swimlaneBody=0;fillColor=none;collapsible=0;dropTarget=0;points=[[0,0.5],[1,0.5]];portConstraint=eastwest;top=0;left=0;right=0;bottom=0;" parent="Cv067esEAor_iLYO7rBp-341" vertex="1">
          <mxGeometry y="135" width="172" height="22" as="geometry" />
        </mxCell>
        <mxCell id="Cv067esEAor_iLYO7rBp-363" value="resetToken" style="shape=partialRectangle;connectable=0;fillColor=none;top=0;left=0;bottom=0;right=0;align=left;spacingLeft=2;overflow=hidden;fontSize=11;" parent="Cv067esEAor_iLYO7rBp-362" vertex="1">
          <mxGeometry width="96" height="22" as="geometry">
            <mxRectangle width="96" height="22" as="alternateBounds" />
          </mxGeometry>
        </mxCell>
        <mxCell id="Cv067esEAor_iLYO7rBp-364" value="varchar" style="shape=partialRectangle;connectable=0;fillColor=none;top=0;left=0;bottom=0;right=0;align=left;spacingLeft=2;overflow=hidden;fontSize=11;" parent="Cv067esEAor_iLYO7rBp-362" vertex="1">
          <mxGeometry x="96" width="54" height="22" as="geometry">
            <mxRectangle width="54" height="22" as="alternateBounds" />
          </mxGeometry>
        </mxCell>
        <mxCell id="Cv067esEAor_iLYO7rBp-365" value="" style="shape=partialRectangle;connectable=0;fillColor=none;top=0;left=0;bottom=0;right=0;align=left;spacingLeft=2;overflow=hidden;fontSize=11;" parent="Cv067esEAor_iLYO7rBp-362" vertex="1">
          <mxGeometry x="150" width="22" height="22" as="geometry">
            <mxRectangle width="22" height="22" as="alternateBounds" />
          </mxGeometry>
        </mxCell>
        <mxCell id="Cv067esEAor_iLYO7rBp-366" style="shape=tableRow;horizontal=0;startSize=0;swimlaneHead=0;swimlaneBody=0;fillColor=none;collapsible=0;dropTarget=0;points=[[0,0.5],[1,0.5]];portConstraint=eastwest;top=0;left=0;right=0;bottom=0;" parent="Cv067esEAor_iLYO7rBp-341" vertex="1">
          <mxGeometry y="157" width="172" height="22" as="geometry" />
        </mxCell>
        <mxCell id="Cv067esEAor_iLYO7rBp-367" value="resetTokenExpiry" style="shape=partialRectangle;connectable=0;fillColor=none;top=0;left=0;bottom=0;right=0;align=left;spacingLeft=2;overflow=hidden;fontSize=11;" parent="Cv067esEAor_iLYO7rBp-366" vertex="1">
          <mxGeometry width="96" height="22" as="geometry">
            <mxRectangle width="96" height="22" as="alternateBounds" />
          </mxGeometry>
        </mxCell>
        <mxCell id="Cv067esEAor_iLYO7rBp-368" value="datetime" style="shape=partialRectangle;connectable=0;fillColor=none;top=0;left=0;bottom=0;right=0;align=left;spacingLeft=2;overflow=hidden;fontSize=11;" parent="Cv067esEAor_iLYO7rBp-366" vertex="1">
          <mxGeometry x="96" width="54" height="22" as="geometry">
            <mxRectangle width="54" height="22" as="alternateBounds" />
          </mxGeometry>
        </mxCell>
        <mxCell id="Cv067esEAor_iLYO7rBp-369" value="" style="shape=partialRectangle;connectable=0;fillColor=none;top=0;left=0;bottom=0;right=0;align=left;spacingLeft=2;overflow=hidden;fontSize=11;" parent="Cv067esEAor_iLYO7rBp-366" vertex="1">
          <mxGeometry x="150" width="22" height="22" as="geometry">
            <mxRectangle width="22" height="22" as="alternateBounds" />
          </mxGeometry>
        </mxCell>
        <mxCell id="Cv067esEAor_iLYO7rBp-370" style="shape=tableRow;horizontal=0;startSize=0;swimlaneHead=0;swimlaneBody=0;fillColor=none;collapsible=0;dropTarget=0;points=[[0,0.5],[1,0.5]];portConstraint=eastwest;top=0;left=0;right=0;bottom=0;" parent="Cv067esEAor_iLYO7rBp-341" vertex="1">
          <mxGeometry y="179" width="172" height="22" as="geometry" />
        </mxCell>
        <mxCell id="Cv067esEAor_iLYO7rBp-371" value="createdAt" style="shape=partialRectangle;connectable=0;fillColor=none;top=0;left=0;bottom=0;right=0;align=left;spacingLeft=2;overflow=hidden;fontSize=11;" parent="Cv067esEAor_iLYO7rBp-370" vertex="1">
          <mxGeometry width="96" height="22" as="geometry">
            <mxRectangle width="96" height="22" as="alternateBounds" />
          </mxGeometry>
        </mxCell>
        <mxCell id="Cv067esEAor_iLYO7rBp-372" value="timestamp" style="shape=partialRectangle;connectable=0;fillColor=none;top=0;left=0;bottom=0;right=0;align=left;spacingLeft=2;overflow=hidden;fontSize=11;" parent="Cv067esEAor_iLYO7rBp-370" vertex="1">
          <mxGeometry x="96" width="54" height="22" as="geometry">
            <mxRectangle width="54" height="22" as="alternateBounds" />
          </mxGeometry>
        </mxCell>
        <mxCell id="Cv067esEAor_iLYO7rBp-373" value="" style="shape=partialRectangle;connectable=0;fillColor=none;top=0;left=0;bottom=0;right=0;align=left;spacingLeft=2;overflow=hidden;fontSize=11;" parent="Cv067esEAor_iLYO7rBp-370" vertex="1">
          <mxGeometry x="150" width="22" height="22" as="geometry">
            <mxRectangle width="22" height="22" as="alternateBounds" />
          </mxGeometry>
        </mxCell>
        <mxCell id="Cv067esEAor_iLYO7rBp-374" style="shape=tableRow;horizontal=0;startSize=0;swimlaneHead=0;swimlaneBody=0;fillColor=none;collapsible=0;dropTarget=0;points=[[0,0.5],[1,0.5]];portConstraint=eastwest;top=0;left=0;right=0;bottom=0;" parent="Cv067esEAor_iLYO7rBp-341" vertex="1">
          <mxGeometry y="201" width="172" height="22" as="geometry" />
        </mxCell>
        <mxCell id="Cv067esEAor_iLYO7rBp-375" value="updatedAt" style="shape=partialRectangle;connectable=0;fillColor=none;top=0;left=0;bottom=0;right=0;align=left;spacingLeft=2;overflow=hidden;fontSize=11;" parent="Cv067esEAor_iLYO7rBp-374" vertex="1">
          <mxGeometry width="96" height="22" as="geometry">
            <mxRectangle width="96" height="22" as="alternateBounds" />
          </mxGeometry>
        </mxCell>
        <mxCell id="Cv067esEAor_iLYO7rBp-376" value="timestamp" style="shape=partialRectangle;connectable=0;fillColor=none;top=0;left=0;bottom=0;right=0;align=left;spacingLeft=2;overflow=hidden;fontSize=11;" parent="Cv067esEAor_iLYO7rBp-374" vertex="1">
          <mxGeometry x="96" width="54" height="22" as="geometry">
            <mxRectangle width="54" height="22" as="alternateBounds" />
          </mxGeometry>
        </mxCell>
        <mxCell id="Cv067esEAor_iLYO7rBp-377" value="" style="shape=partialRectangle;connectable=0;fillColor=none;top=0;left=0;bottom=0;right=0;align=left;spacingLeft=2;overflow=hidden;fontSize=11;" parent="Cv067esEAor_iLYO7rBp-374" vertex="1">
          <mxGeometry x="150" width="22" height="22" as="geometry">
            <mxRectangle width="22" height="22" as="alternateBounds" />
          </mxGeometry>
        </mxCell>
      </root>
    </mxGraphModel>
  </diagram>
</mxfile>
